<mxfile host="app.diagrams.net" agent="Mozilla/5.0 (Windows NT 10.0; Win64; x64) AppleWebKit/537.36 (KHTML, like Gecko) Chrome/133.0.0.0 Safari/537.36 Edg/133.0.0.0" version="26.0.1">
  <diagram name="第 1 页" id="49VFRHUnO_W54gyLXkiO">
    <mxGraphModel dx="3405" dy="1395" grid="1" gridSize="10" guides="1" tooltips="1" connect="1" arrows="1" fold="1" page="1" pageScale="1" pageWidth="827" pageHeight="1169" math="0" shadow="0">
      <root>
        <mxCell id="0" />
        <mxCell id="1" parent="0" />
        <mxCell id="Oko7wqly2_N-PcPin_Jt-2" value="&lt;font style=&quot;font-size: 20px;&quot;&gt;Reasoning LLM&lt;/font&gt;" style="rounded=1;whiteSpace=wrap;html=1;fillColor=#ffe6cc;strokeColor=#d79b00;" vertex="1" parent="1">
          <mxGeometry x="-120" y="675" width="560" height="60" as="geometry" />
        </mxCell>
        <mxCell id="Oko7wqly2_N-PcPin_Jt-3" value="" style="rounded=1;whiteSpace=wrap;html=1;fillColor=#ffe6cc;strokeColor=#d79b00;fontColor=#FFFF00;" vertex="1" parent="1">
          <mxGeometry x="-550" y="335" width="46" height="20" as="geometry" />
        </mxCell>
        <mxCell id="Oko7wqly2_N-PcPin_Jt-4" value="：CAD Sequence Token" style="text;html=1;align=left;verticalAlign=middle;whiteSpace=wrap;rounded=0;fontSize=14;fontColor=#FFFF00;" vertex="1" parent="1">
          <mxGeometry x="-494" y="330" width="170" height="30" as="geometry" />
        </mxCell>
        <mxCell id="Oko7wqly2_N-PcPin_Jt-5" value="" style="rounded=1;whiteSpace=wrap;html=1;fillColor=#dae8fc;strokeColor=#6c8ebf;fontColor=#FFFF00;" vertex="1" parent="1">
          <mxGeometry x="-550" y="380" width="46" height="20" as="geometry" />
        </mxCell>
        <mxCell id="Oko7wqly2_N-PcPin_Jt-6" value="：Point Cloud Token" style="text;html=1;align=left;verticalAlign=middle;whiteSpace=wrap;rounded=0;fontSize=14;fontColor=#FFFF00;" vertex="1" parent="1">
          <mxGeometry x="-494" y="375" width="170" height="30" as="geometry" />
        </mxCell>
        <mxCell id="Oko7wqly2_N-PcPin_Jt-7" value="" style="rounded=1;whiteSpace=wrap;html=1;fillColor=#dae8fc;strokeColor=#6c8ebf;" vertex="1" parent="1">
          <mxGeometry x="-120" y="645" width="46" height="20" as="geometry" />
        </mxCell>
        <mxCell id="Oko7wqly2_N-PcPin_Jt-8" value="" style="rounded=1;whiteSpace=wrap;html=1;fillColor=#dae8fc;strokeColor=#6c8ebf;" vertex="1" parent="1">
          <mxGeometry x="-64" y="645" width="46" height="20" as="geometry" />
        </mxCell>
        <mxCell id="Oko7wqly2_N-PcPin_Jt-9" value="" style="rounded=1;whiteSpace=wrap;html=1;fillColor=#dae8fc;strokeColor=#6c8ebf;" vertex="1" parent="1">
          <mxGeometry x="-4" y="645" width="46" height="20" as="geometry" />
        </mxCell>
        <mxCell id="Oko7wqly2_N-PcPin_Jt-10" value="" style="rounded=1;whiteSpace=wrap;html=1;fillColor=#dae8fc;strokeColor=#6c8ebf;" vertex="1" parent="1">
          <mxGeometry x="96" y="645" width="46" height="20" as="geometry" />
        </mxCell>
        <mxCell id="Oko7wqly2_N-PcPin_Jt-11" value="。。。" style="text;html=1;align=center;verticalAlign=middle;whiteSpace=wrap;rounded=0;" vertex="1" parent="1">
          <mxGeometry x="42" y="640" width="60" height="30" as="geometry" />
        </mxCell>
        <mxCell id="Oko7wqly2_N-PcPin_Jt-12" value="" style="rounded=1;whiteSpace=wrap;html=1;fillColor=#ffe6cc;strokeColor=#d79b00;" vertex="1" parent="1">
          <mxGeometry x="160" y="645" width="46" height="20" as="geometry" />
        </mxCell>
        <mxCell id="Oko7wqly2_N-PcPin_Jt-13" value="" style="rounded=1;whiteSpace=wrap;html=1;fillColor=#ffe6cc;strokeColor=#d79b00;" vertex="1" parent="1">
          <mxGeometry x="216" y="645" width="46" height="20" as="geometry" />
        </mxCell>
        <mxCell id="Oko7wqly2_N-PcPin_Jt-14" value="" style="rounded=1;whiteSpace=wrap;html=1;fillColor=#ffe6cc;strokeColor=#d79b00;" vertex="1" parent="1">
          <mxGeometry x="276" y="645" width="46" height="20" as="geometry" />
        </mxCell>
        <mxCell id="Oko7wqly2_N-PcPin_Jt-15" value="" style="rounded=1;whiteSpace=wrap;html=1;fillColor=#ffe6cc;strokeColor=#d79b00;" vertex="1" parent="1">
          <mxGeometry x="376" y="645" width="46" height="20" as="geometry" />
        </mxCell>
        <mxCell id="Oko7wqly2_N-PcPin_Jt-16" value="。。。" style="text;html=1;align=center;verticalAlign=middle;whiteSpace=wrap;rounded=0;" vertex="1" parent="1">
          <mxGeometry x="322" y="640" width="60" height="30" as="geometry" />
        </mxCell>
        <mxCell id="Oko7wqly2_N-PcPin_Jt-17" value="&lt;font style=&quot;font-size: 16px;&quot;&gt;Point Tokenizer+Projector&lt;/font&gt;" style="rounded=1;whiteSpace=wrap;html=1;fillColor=#dae8fc;strokeColor=#6c8ebf;" vertex="1" parent="1">
          <mxGeometry x="-114" y="570" width="256" height="60" as="geometry" />
        </mxCell>
        <mxCell id="Oko7wqly2_N-PcPin_Jt-18" value="&lt;font style=&quot;font-size: 16px;&quot;&gt;Tokenizer+Encoding&lt;/font&gt;" style="rounded=1;whiteSpace=wrap;html=1;fillColor=#ffe6cc;strokeColor=#d79b00;" vertex="1" parent="1">
          <mxGeometry x="160" y="570" width="266" height="60" as="geometry" />
        </mxCell>
        <mxCell id="Oko7wqly2_N-PcPin_Jt-19" value="Simple &lt;br&gt;Fusion Sequence" style="text;html=1;align=center;verticalAlign=middle;whiteSpace=wrap;rounded=0;strokeColor=#FF2288;" vertex="1" parent="1">
          <mxGeometry x="142" y="440" width="147" height="30" as="geometry" />
        </mxCell>
      </root>
    </mxGraphModel>
  </diagram>
</mxfile>
